<svg width="308" height="358" viewBox="0 0 308 358" fill="none" xmlns="http://www.w3.org/2000/svg">
<g filter="url(#filter0_d_5_24)">
<rect x="4" width="300" height="350" rx="10" fill="#372549"/>
<mask id="mask0_5_24" style="mask-type:alpha" maskUnits="userSpaceOnUse" x="4" y="0" width="300" height="350">
<path fill-rule="evenodd" clip-rule="evenodd" d="M304 0H4V83V350H304V0ZM4 83L88 90L69 276L4 83ZM69 20.5L57.5 67H99L106 30.5L69 20.5ZM146.5 211.5L198.5 26L274.5 202.5L146.5 211.5ZM106 325C106.167 299 107.9 248.7 113.5 255.5C119.1 262.3 150.167 300.333 165 318.5L106 325ZM220 294L233 255.5L282 259L268.5 309L220 294Z" fill="#28112B"/>
</mask>
<g mask="url(#mask0_5_24)">
<rect x="4" width="300" height="350" rx="10" fill="#28112B"/>
</g>
</g>
<defs>
<filter id="filter0_d_5_24" x="0" y="0" width="308" height="358" filterUnits="userSpaceOnUse" color-interpolation-filters="sRGB">
<feFlood flood-opacity="0" result="BackgroundImageFix"/>
<feColorMatrix in="SourceAlpha" type="matrix" values="0 0 0 0 0 0 0 0 0 0 0 0 0 0 0 0 0 0 127 0" result="hardAlpha"/>
<feOffset dy="4"/>
<feGaussianBlur stdDeviation="2"/>
<feComposite in2="hardAlpha" operator="out"/>
<feColorMatrix type="matrix" values="0 0 0 0 0 0 0 0 0 0 0 0 0 0 0 0 0 0 0.25 0"/>
<feBlend mode="normal" in2="BackgroundImageFix" result="effect1_dropShadow_5_24"/>
<feBlend mode="normal" in="SourceGraphic" in2="effect1_dropShadow_5_24" result="shape"/>
</filter>
</defs>
</svg>
