<svg width="51" height="50" viewBox="0 0 51 50" fill="none" xmlns="http://www.w3.org/2000/svg">
<path d="M24.9938 40.8987C24.8699 41.3605 24.8254 41.8401 24.8623 42.3168C27.7605 41.0196 30.7764 40.0032 33.8686 39.2815C33.9557 39.1017 34.0009 38.9046 34.0009 38.7048C34.0009 38.5051 33.9557 38.3079 33.8686 38.1281C30.8941 37.8752 27.6784 39.1888 24.9938 40.8987Z" fill="#372549"/>
<path d="M40.639 37.8533C42.0656 40.2292 43.4534 42.4146 44.7518 44.1548C46.3756 44.1093 47.7449 43.4803 48.7988 42.1195C50.1124 37.5666 50.1866 31.6225 49.8544 25.2282C47.148 30.4286 44.1515 34.8416 40.639 37.8533Z" fill="#372549"/>
<path d="M4.4113 17.0026C0.188894 29.6495 0.807191 38.557 6.26619 43.7248L7.02501 44.1548L16.8239 29.4067L34.9698 29.2752L37.6037 33.2008L49.0703 19.0699L47.5324 17.2656C45.375 16.0139 43.1118 14.9543 40.7688 14.0988C33.8147 14.2995 26.2484 17.0144 17.9722 22.6431C25.8471 15.8981 37.887 9.87979 45.3217 13.0432C44.7894 11.7619 43.7733 10.7422 42.4939 10.2052C37.7302 9.60156 33.3661 10.1192 29.4945 12.0197C20.6382 11.3907 12.2541 12.9336 4.4113 17.0026Z" fill="#372549"/>
<path d="M0.866727 38.3153C1.01343 38.4991 1.16688 38.6745 1.32539 38.8448C1.48091 39.0188 1.65008 39.18 1.83127 39.3271C2.32197 39.6002 2.32535 39.951 2.50578 40.2596L2.62213 40.4872C2.66091 40.5631 2.70476 40.6322 2.74523 40.7047C2.7857 40.7773 2.82279 40.8481 2.86495 40.9155C2.90262 40.9833 2.9437 41.0492 2.98805 41.1128L3.11452 41.2983C3.16005 41.3523 3.20558 41.4062 3.24773 41.4669C3.27978 41.5242 3.3085 41.5834 3.33373 41.644C3.34902 41.6725 3.37102 41.6968 3.39781 41.7148C3.43154 41.7334 3.47538 41.7536 3.51416 41.7721C3.59056 41.805 3.66392 41.8445 3.73338 41.8902C3.7966 41.929 3.85348 41.9774 3.902 42.0335C3.95277 42.0862 3.99955 42.1425 4.04196 42.2021C4.08749 42.2578 4.13471 42.3084 4.18192 42.3607C4.37707 42.5586 4.59434 42.7334 4.82945 42.8817C5.09239 43.0413 5.36956 43.1763 5.6574 43.2847C5.98793 43.4044 6.3259 43.5024 6.66916 43.5781C6.84791 43.6203 7.02834 43.6574 7.21382 43.6911L7.35041 43.7181L7.47182 43.7366L7.71296 43.7721C7.88159 43.7906 8.06539 43.7974 8.24413 43.8108H8.80397C9.5611 43.8024 10.3402 43.7468 11.1192 43.6759C12.679 43.5276 14.2489 43.3083 15.8121 43.047L15.8289 43.1077C14.3535 43.6793 12.8611 44.2105 11.3367 44.681C10.5712 44.9137 9.80055 45.1329 9.00126 45.3099L8.39252 45.4313C8.18174 45.46 7.97602 45.4971 7.7568 45.5207L7.41955 45.5443L7.25092 45.5544H7.09579C6.89006 45.5544 6.68265 45.5544 6.47356 45.5544C5.57515 45.5604 4.68206 45.4162 3.83118 45.1278C3.37167 44.961 2.9349 44.7372 2.53107 44.4617C2.1377 44.1945 1.77369 43.8865 1.44512 43.5427C1.40465 43.5006 1.36755 43.4601 1.32708 43.4129L1.20567 43.2594C1.11842 43.1638 1.0457 43.0558 0.989825 42.939C0.940923 42.821 0.89708 42.7013 0.851551 42.5849L0.747003 42.2359C0.634453 41.7911 0.564995 41.3365 0.539592 40.8784C0.527788 40.6575 0.517671 40.44 0.521043 40.2242C0.516918 40.0072 0.53386 39.7903 0.571631 39.5766C0.64777 39.1513 0.746272 38.7303 0.866727 38.3153Z" fill="#372549"/>
<path d="M1.38609 39.0471C1.33213 39.1179 3.30506 40.0673 4.40282 40.4535L6.29481 44.0115L2.12805 42.7097C2.12805 42.7097 1.44174 38.9746 1.38609 39.0471Z" fill="#372549"/>
<path d="M0.150077 44.2813C0.559743 44.6508 0.996591 44.989 1.45693 45.293C1.56823 45.3689 1.68121 45.4363 1.79418 45.5004L1.96281 45.6016L2.13144 45.6927C2.24273 45.7551 2.3574 45.8124 2.46869 45.8613C2.57998 45.9102 2.68959 45.9726 2.80594 46.013C2.9223 46.0535 3.03022 46.1041 3.1432 46.1412L3.48045 46.2474C3.70978 46.2947 3.92056 46.3587 4.13978 46.384C4.24514 46.4044 4.35153 46.4191 4.45848 46.4279C4.5105 46.432 4.56228 46.4388 4.61362 46.4481L4.69119 46.4582C4.72015 46.4639 4.74944 46.4678 4.77887 46.47C5.05205 46.5156 5.31342 46.5543 5.56804 46.5914C7.53086 46.9287 9.57292 46.7601 11.5914 46.3756C13.6338 45.9567 15.6307 45.3406 17.554 44.5359C18.5253 44.1334 19.4808 43.6911 20.4207 43.2088C20.8894 42.9693 21.3515 42.7164 21.8118 42.4635C22.0395 42.337 22.2688 42.2105 22.4863 42.079L23.0816 41.7249L23.1996 41.6524L24.837 40.7114C25.3816 40.3978 25.9364 40.0976 26.4676 39.7621C27.5417 39.1061 28.6159 38.4502 29.653 37.7386C31.7587 36.3722 33.7932 34.8993 35.7488 33.3256C37.7028 31.7707 39.5543 30.091 41.2915 28.2972C41.7131 27.8436 42.1347 27.3899 42.5529 26.9296L43.1566 26.2264C43.3589 25.9937 43.5596 25.7593 43.7467 25.5148L44.3184 24.7931C44.5056 24.5503 44.6792 24.3007 44.8597 24.0545C44.9491 23.9314 45.0418 23.8083 45.1278 23.6835L45.3774 23.3075C45.546 23.0562 45.7146 22.8016 45.8613 22.5504C46.008 22.2991 46.175 22.0445 46.2964 21.7882L46.4954 21.4088C46.5578 21.2806 46.6134 21.1508 46.6724 21.0209C46.9044 20.4881 47.1026 19.9413 47.266 19.3836C47.4336 18.8143 47.572 18.2368 47.6808 17.6535C47.7365 17.3601 47.782 17.065 47.8241 16.7715C47.8663 16.4781 47.8983 16.1847 47.9118 15.9284L47.9388 15.4546C47.9472 15.3028 47.9523 15.1561 47.9557 15.0111C47.9557 14.721 47.9557 14.4462 47.9371 14.1781C47.9059 13.6637 47.7985 13.1568 47.6184 12.6739C47.4379 12.1878 47.1886 11.7301 46.8781 11.3148C46.5611 10.8855 46.1911 10.498 45.777 10.1614C45.5662 9.99276 45.3436 9.82414 45.1126 9.67406C44.9946 9.59818 44.8765 9.52398 44.7518 9.44979C44.627 9.37559 44.5207 9.31994 44.4027 9.25418C43.9175 8.9994 43.4003 8.8111 42.8648 8.69434C42.2898 8.5699 41.7043 8.50045 41.1162 8.48693C40.4687 8.47007 39.8279 8.4414 39.1888 8.43297C37.9106 8.41105 36.6375 8.41948 35.361 8.47513C34.7219 8.50211 34.0845 8.54089 33.447 8.59822L32.4876 8.67242C32.1638 8.70596 31.8377 8.7116 31.5129 8.68928C31.7656 8.45357 32.0699 8.28032 32.4016 8.1834C32.7086 8.07442 33.0216 7.98321 33.3391 7.91023C33.9715 7.76352 34.6089 7.63368 35.2463 7.51227C35.8837 7.39086 36.5278 7.28125 37.1703 7.18682C37.8128 7.09239 38.4586 7.01819 39.1028 6.93725C39.7469 6.85631 40.3894 6.8091 41.0234 6.75176C41.722 6.68635 42.4247 6.67845 43.1245 6.72816C43.8632 6.78328 44.5903 6.94223 45.2846 7.20031C45.4532 7.26607 45.6421 7.34364 45.8023 7.41784C45.9625 7.49203 46.1261 7.57129 46.2879 7.65223C46.6135 7.82201 46.9298 8.00888 47.2356 8.21207C48.5261 9.05808 49.5533 10.2494 50.2001 11.6504C50.5248 12.3686 50.7375 13.1323 50.8307 13.915C50.8763 14.2944 50.9016 14.6671 50.91 15.0246C50.91 15.2033 50.91 15.3804 50.91 15.5507V15.8053V16.0397C50.9016 16.4343 50.8712 16.785 50.8392 17.1324C50.8071 17.4798 50.7616 17.8271 50.7093 18.1695C50.6084 18.8614 50.4711 19.5475 50.2979 20.225C50.1215 20.9178 49.903 21.5992 49.6436 22.2654C49.5728 22.434 49.507 22.6026 49.4328 22.7713L49.2018 23.2704C49.05 23.6077 48.8764 23.9028 48.7094 24.2147C48.5425 24.5267 48.362 24.8167 48.1833 25.1118L47.9135 25.5536C47.8224 25.6969 47.7246 25.8369 47.6319 25.9785C47.4414 26.2585 47.2542 26.5468 47.0586 26.8217L46.4616 27.6395C46.2643 27.9144 46.0569 28.1774 45.8478 28.4388L45.2205 29.228C44.7911 29.7384 44.3572 30.2442 43.9187 30.7456C42.1375 32.7137 40.2315 34.5651 38.2124 36.2884C36.2156 38.011 34.1333 39.6319 31.9733 41.1448C29.771 42.5899 27.4945 43.8968 25.1995 45.1598L25.3277 45.0805L25.2231 45.1463L25.1692 45.1783L25.068 45.2357L24.869 45.3453L24.4761 45.5544C24.2164 45.6915 23.9562 45.8236 23.6954 45.9507C23.1743 46.2087 22.6465 46.4481 22.1187 46.6808C21.0597 47.1451 19.9839 47.5655 18.8912 47.9421C16.697 48.7211 14.4237 49.256 12.1124 49.5373C11.529 49.6048 10.9422 49.6486 10.3537 49.6739C10.0603 49.6891 9.76347 49.6824 9.46837 49.6857C9.17328 49.6891 8.87649 49.6689 8.5814 49.6587C8.2863 49.6486 7.98952 49.6166 7.69442 49.5896C7.39933 49.5626 7.10423 49.5222 6.80745 49.48C6.21802 49.388 5.63421 49.2631 5.05879 49.1057C4.91883 49.0652 4.78224 49.0213 4.64566 48.9792C4.50907 48.937 4.37754 48.8814 4.2477 48.8325C4.11786 48.7836 3.94923 48.701 3.80421 48.6301C3.7317 48.593 3.65751 48.561 3.58668 48.5188L3.37253 48.3957C2.84766 48.0596 2.35837 47.6708 1.91222 47.2356C1.0892 46.4133 0.439032 45.4346 0 44.3571L0.150077 44.2813Z" fill="#372549"/>
<path d="M6.44492 13.3214C6.32155 13.7834 6.27652 14.2627 6.31171 14.7396C9.21053 13.4424 12.227 12.426 15.3197 11.7043C15.4064 11.5241 15.4514 11.3267 15.4514 11.1268C15.4514 10.9268 15.4064 10.7294 15.3197 10.5492C12.3435 10.2946 9.12777 11.6065 6.44492 13.3214Z" fill="#372549"/>
<path d="M7.487 24.0849H9.35707L10.2811 23.0529L9.24746 21.972H7.487V24.0849Z" fill="white"/>
<path d="M12.2389 26.8774V25.0073L11.1816 24.085L10.126 25.1186V26.8774H12.2389Z" fill="white"/>
<path d="M10.126 19.4207V21.2908L11.1731 22.2149L12.2389 21.1812V19.4207H10.126Z" fill="white"/>
<path d="M14.8441 22.0496H12.9741L12.0517 23.0968L13.0854 24.1608H14.8441V22.0496Z" fill="white"/>
<path d="M40.2764 22.0496C40.9683 22.0496 41.5293 21.4887 41.5293 20.7967C41.5293 20.1048 40.9683 19.5438 40.2764 19.5438C39.5844 19.5438 39.0235 20.1048 39.0235 20.7967C39.0235 21.4887 39.5844 22.0496 40.2764 22.0496Z" fill="white"/>
<path d="M40.2764 26.766C40.9683 26.766 41.5293 26.2051 41.5293 25.5131C41.5293 24.8212 40.9683 24.2603 40.2764 24.2603C39.5844 24.2603 39.0235 24.8212 39.0235 25.5131C39.0235 26.2051 39.5844 26.766 40.2764 26.766Z" fill="white"/>
<path d="M42.7181 24.3412C43.4101 24.3412 43.971 23.7803 43.971 23.0883C43.971 22.3964 43.4101 21.8354 42.7181 21.8354C42.0262 21.8354 41.4652 22.3964 41.4652 23.0883C41.4652 23.7803 42.0262 24.3412 42.7181 24.3412Z" fill="white"/>
<path d="M37.9342 24.3412C38.6261 24.3412 39.1871 23.7803 39.1871 23.0883C39.1871 22.3964 38.6261 21.8354 37.9342 21.8354C37.2422 21.8354 36.6813 22.3964 36.6813 23.0883C36.6813 23.7803 37.2422 24.3412 37.9342 24.3412Z" fill="white"/>
<path d="M14.7008 6.20209H13.6891V7.21385H14.7008V6.20209Z" fill="#372549"/>
<path d="M17.7766 2.32031H16.3079V3.64066H17.7766V2.32031Z" fill="#372549"/>
<path d="M21.3059 4.29993H19.161V6.3285H21.3059V4.29993Z" fill="#372549"/>
<path d="M20.5134 8.24243H18.9469V9.80897H20.5134V8.24243Z" fill="#372549"/>
<path d="M26.0258 6.20209H23.203V9.02489H26.0258V6.20209Z" fill="#372549"/>
<path d="M25.643 0H22.6634V2.97963H25.643V0Z" fill="#372549"/>
<path d="M31.7523 2.97961H28.2061V6.52583H31.7523V2.97961Z" fill="#372549"/>
</svg>
